<svg width="87" height="53" viewBox="0 0 87 53" fill="none" xmlns="http://www.w3.org/2000/svg">
<path d="M3.01576 41V12.0817H11.4021L17.7228 38.0256H18.3838L24.7045 12.0817H33.0908V41H28.753V15.2214H28.092L21.8126 41H14.2939L8.01449 15.2214H7.3535V41H3.01576Z" fill="#181818"/>
<path d="M35.421 29.1433V26.8499H39.031L41.9616 27.2321L42.1739 26.7649L39.7955 24.9811L37.2472 22.3903L38.8612 20.8189L41.4094 23.3672L43.2357 25.7031L43.7029 25.4908L43.3207 22.5602V18.9502H45.6141V22.5602L45.2319 25.4908L45.6991 25.7031L47.5253 23.3672L50.0736 20.8189L51.6875 22.3903L49.1392 24.9811L46.7608 26.7649L46.9732 27.2321L49.9037 26.8499H53.5138V29.1433H49.9037L46.9732 28.8035L46.7608 29.2282L49.1392 31.0545L51.6875 33.6028L50.0736 35.2167L47.5253 32.6684L45.6991 30.29L45.2319 30.5024L45.6141 33.4329V37.043H43.3207V33.4329L43.7029 30.5024L43.2357 30.29L41.4094 32.6684L38.8612 35.2167L37.2472 33.6028L39.7955 31.0545L42.1739 29.2282L41.9616 28.8035L39.031 29.1433H35.421Z" fill="#181818"/>
<rect x="57.1638" y="12.4016" width="28.1969" height="28.1969" rx="14.0985" stroke="#181818" stroke-width="3.27871"/>
<path d="M71.3819 34.3213C69.3929 34.3213 67.8169 33.7705 66.654 32.6688C65.4912 31.5519 64.9098 29.9606 64.9098 27.895V24.0393C64.9098 21.9737 65.4912 20.3901 66.654 19.2884C67.8169 18.1715 69.3929 17.613 71.3819 17.613C73.3557 17.613 74.8781 18.1562 75.9492 19.2425C77.0355 20.3136 77.5787 21.7901 77.5787 23.672V23.8098H74.5951V23.5802C74.5951 22.6316 74.3273 21.8513 73.7918 21.2392C73.2716 20.6272 72.4683 20.3212 71.3819 20.3212C70.3109 20.3212 69.4694 20.6502 68.8573 21.3081C68.2453 21.966 67.9393 22.8611 67.9393 23.9934V27.9409C67.9393 29.0579 68.2453 29.953 68.8573 30.6262C69.4694 31.2841 70.3109 31.6131 71.3819 31.6131C72.4683 31.6131 73.2716 31.3071 73.7918 30.6951C74.3273 30.0677 74.5951 29.2874 74.5951 28.3541V27.9409H77.5787V28.2622C77.5787 30.1442 77.0355 31.6284 75.9492 32.7147C74.8781 33.7858 73.3557 34.3213 71.3819 34.3213Z" fill="#181818"/>
</svg>
